<?xml version="1.0" encoding="utf-8"?>
<!-- Generator: Adobe Illustrator 27.7.0, SVG Export Plug-In . SVG Version: 6.00 Build 0)  -->
<svg version="1.1" id="Layer_1" xmlns="http://www.w3.org/2000/svg" xmlns:xlink="http://www.w3.org/1999/xlink" x="0px" y="0px"
	 viewBox="0 0 800 800" style="enable-background:new 0 0 800 800;" xml:space="preserve">
<style type="text/css">
	.st0{fill:#C98C64;}
</style>
<g>
	<g>
		<path class="st0" d="M400,117.6c-155.7,0-282.4,126.7-282.4,282.4S244.2,682.4,400,682.4S682.4,555.7,682.4,400
			S555.7,117.6,400,117.6z M400,649.8c-137.7,0-249.8-112-249.8-249.8s112-249.8,249.8-249.8s249.8,112,249.8,249.8
			S537.7,649.8,400,649.8z"/>
	</g>
</g>
<g>
	<g>
		<path class="st0" d="M766,343.3c18.8,0,34-15.3,34-34l-0.1-108.7c0-9-7.3-16.3-16.3-16.3c0,0,0,0,0,0c-9,0-16.3,7.3-16.3,16.3
			l0.1,108.7c0,0.8-0.6,1.4-1.4,1.4h-9.6V200.6c0-9-7.3-16.3-16.3-16.3c-9,0-16.3,7.3-16.3,16.3v110.1h-9.7c-0.8,0-1.4-0.6-1.4-1.4
			l-0.1-108.7c0-9-7.3-16.3-16.3-16.3c0,0,0,0,0,0c-9,0-16.3,7.3-16.3,16.3l0.1,108.7c0,18.8,15.3,34,34,34h9.7v73.5h-10
			c-9,0-16.3,7.3-16.3,16.3v172.5c0,23.3,19,42.2,42.4,42.2c23.4,0,42.4-18.9,42.4-42.2V433.1c0-9-7.3-16.3-16.3-16.3h-9.6v-73.5
			L766,343.3L766,343.3z M749.7,605.6c0,5.2-4.5,9.5-9.8,9.5s-9.8-4.4-9.8-9.5V449.4h19.6V605.6L749.7,605.6z"/>
	</g>
</g>
<g>
	<g>
		<path class="st0" d="M20,152.6c-4.9-1.1-10,0-13.9,3.1c-3.9,3.1-6.2,7.8-6.2,12.8v437.1c0,23.3,19,42.2,42.4,42.2
			s42.4-18.9,42.4-42.2V232.2C84.9,181.2,42.5,157.9,20,152.6z M52.2,605.6c0,5.2-4.5,9.5-9.8,9.5s-9.8-4.4-9.8-9.5V449.4h19.6
			V605.6z M52.2,416.8H32.7V194.1c0.3,0.2,0.6,0.5,1,0.7c12.5,9.4,18.6,21.6,18.6,37.3V416.8z"/>
	</g>
</g>
<g>
	<g>
		<path class="st0" d="M540.7,350.6c-20.9-59.6-77.5-99.7-140.7-99.7c-9,0-16.3,7.3-16.3,16.3s7.3,16.3,16.3,16.3
			c49.4,0,93.5,31.3,109.9,77.9c2.4,6.7,8.7,10.9,15.4,10.9c1.8,0,3.6-0.3,5.4-0.9C539.2,368.5,543.6,359.1,540.7,350.6z"/>
	</g>
</g>
<g>
	<g>
		<path class="st0" d="M532.7,383.6c-9,0-16.3,7.3-16.3,16.3v0.1c0,9,7.3,16.3,16.3,16.3s16.3-7.4,16.3-16.4
			C549,390.9,541.7,383.6,532.7,383.6z"/>
	</g>
</g>
<g>
	<g>
		<path class="st0" d="M400,191c-115.2,0-208.9,93.7-208.9,208.9c0,45.8,14.6,89.3,42.1,125.8c26.7,35.3,64.6,61.7,106.7,74.3
			c8.6,2.6,17.7-2.3,20.3-11c2.6-8.6-2.3-17.7-11-20.3c-73.9-22.2-125.6-91.6-125.6-168.8c0-97.2,79.1-176.2,176.2-176.2
			c97.2,0,176.2,79.1,176.2,176.2c0,77.3-51.6,146.7-125.6,168.8c-8.6,2.6-13.5,11.7-11,20.3c2.1,7.1,8.6,11.6,15.6,11.6
			c1.6,0,3.1-0.2,4.7-0.7c42.1-12.6,80-39,106.7-74.3c27.6-36.5,42.1-80,42.1-125.8C608.8,284.7,515.1,191,400,191z"/>
	</g>
</g>
<g>
	<g>
		<path class="st0" d="M400,576.1c-9,0-16.3,7.3-16.3,16.3v0.2c0,9,7.3,16.3,16.3,16.3s16.3-7.3,16.3-16.3v-0.2
			C416.3,583.4,409,576.1,400,576.1z"/>
	</g>
</g>
</svg>
