<?xml version="1.0" encoding="utf-8"?>
<!-- Generator: Adobe Illustrator 27.7.0, SVG Export Plug-In . SVG Version: 6.00 Build 0)  -->
<svg version="1.1" id="Layer_1" xmlns="http://www.w3.org/2000/svg" xmlns:xlink="http://www.w3.org/1999/xlink" x="0px" y="0px"
	 viewBox="0 0 800 800" style="enable-background:new 0 0 800 800;" xml:space="preserve">
<style type="text/css">
	.st0{fill:#C98C64;}
</style>
<g>
	<g>
		<path class="st0" d="M406.8,550.3c-7,0-12.7,5.7-12.7,12.7v27.2c0,7,5.7,12.7,12.7,12.7c7,0,12.7-5.7,12.7-12.7v-27.2
			C419.5,556,413.8,550.3,406.8,550.3z"/>
	</g>
</g>
<g>
	<g>
		<path class="st0" d="M792.3,367.8c-5-5-11.6-7.7-18.6-7.7c0,0,0,0,0,0l-32.7,0c-0.4,0-0.7-0.5-0.8-0.9
			c-9-44.1-29.1-85.7-58.3-120.2c-28.2-33.4-64.3-59.7-104.5-76.2c-6.5-27.4-20.2-55.6-47.2-76.9c-26.2-20.6-52.5-24.5-53.6-24.7
			c-3.6-0.5-7.4,0.6-10.1,3c-2.8,2.4-4.4,5.9-4.4,9.6v68.8h-46.2c-11.4-39.2-47.7-67.9-90.5-67.9c-43.8,0-80.6,30-91.2,70.4
			c-63,8.6-120.9,39.1-163.9,86.5C24.9,281.6,0,346.2,0,413.6C0,564.8,78.5,687.9,102.6,722c7.4,10.5,19.6,16.8,32.6,16.8h54.2
			c22,0,39.9-17.9,39.9-39.9v-17.6c13.7,2.1,27.7,3.2,41.6,3.2h123.1v14.4c0,22,17.9,39.9,39.9,39.9h59.6c18.7,0,35.1-13.3,39-31.6
			l6.5-30.5c83.7-20.4,151-79.1,184.2-155.4h50.4c14.5,0,26.3-11.8,26.3-26.3V386.4C800,379.4,797.3,372.8,792.3,367.8z
			 M325.3,100.2c37.9,0,68.8,30.9,68.8,68.8c0,9.7-2.1,19.3-6,28H262.5c-3.9-8.8-6-18.3-6-28C256.5,131.1,287.3,100.2,325.3,100.2z
			 M774.5,495.1c0,0.5-0.4,0.9-0.8,0.9h-40.8c6.9-21.7,11.2-44.6,12.4-68.1c0.4-7-5-13-12.1-13.4c-7-0.4-13,5-13.4,12.1
			c-5.4,104.1-76.2,192.9-174.7,222.3l17.8-83.1c1.5-6.9-2.9-13.7-9.8-15.1c-6.9-1.5-13.7,2.9-15.1,9.8L507.6,702
			c-1.4,6.6-7.4,11.4-14.1,11.4H434c-8,0-14.4-6.5-14.4-14.4v-54.4c0-7-5.7-12.7-12.7-12.7s-12.7,5.7-12.7,12.7V659H270.9
			c-14,0-27.9-1.2-41.6-3.5v-92.4c0-7-5.7-12.7-12.7-12.7s-12.7,5.7-12.7,12.7v135.9c0,8-6.5,14.4-14.4,14.4h-54.2
			c-4.8,0-9-2.2-11.8-6c-23-32.6-97.9-150-97.9-293.7c0-61,22.6-119.6,63.5-164.8c37.5-41.4,87.5-68.5,142-77.4
			c0.2,8.7,1.7,17.4,4.2,25.6h-5.1c-7,0-12.7,5.7-12.7,12.7s5.7,12.7,12.7,12.7h190.2c7,0,12.7-5.7,12.7-12.7s-5.7-12.7-12.7-12.7
			h-5.1c2.8-9,4.3-18.5,4.3-28c0-0.3,0-0.6,0-0.9H462v28c0,7,5.7,12.7,12.7,12.7s12.7-5.7,12.7-12.7V90.6
			c24.2,9.1,69.6,37.2,69.6,119.2c0,7,5.7,12.7,12.7,12.7c7,0,12.7-5.7,12.7-12.7c0-5.4-0.2-11.1-0.6-17
			c30.7,15,58.3,36.4,80.5,62.6c26.4,31.3,44.7,68.9,52.8,108.9c2.5,12.3,13.3,21.3,25.8,21.3l32.7,0c0.1,0,0.4,0,0.6,0.2
			c0.2,0.2,0.2,0.5,0.2,0.6L774.5,495.1L774.5,495.1z"/>
	</g>
</g>
<g>
	<g>
		<path class="st0" d="M663.3,368.4c-7.9-21.2-28.8-35.5-52.1-35.5c-23.2,0-44.2,14.3-52.1,35.5c-2.5,6.6,0.9,13.9,7.5,16.4
			c6.6,2.5,13.9-0.9,16.4-7.5c4.2-11.3,15.5-18.9,28.2-18.9c12.7,0,24,7.6,28.2,18.9c1.9,5.1,6.8,8.3,11.9,8.3c1.5,0,3-0.3,4.4-0.8
			C662.4,382.3,665.8,375,663.3,368.4z"/>
	</g>
</g>
<g>
	<g>
		<path class="st0" d="M338,403.9v-65.1c25,3,42.5,14.6,42.5,25.1c0,7,5.7,12.7,12.7,12.7s12.7-5.7,12.7-12.7c0-26-29-47-67.9-50.8
			v-1.5c0-7-5.7-12.7-12.7-12.7s-12.7,5.7-12.7,12.7v1.5c-39,3.8-67.9,24.7-67.9,50.8c0,37.2,36.8,50.6,67.9,59.4v65.1
			c-25-3-42.5-14.6-42.5-25.1c0-7-5.7-12.7-12.7-12.7s-12.7,5.7-12.7,12.7c0,26,29,47,67.9,50.8v1.5c0,7,5.7,12.7,12.7,12.7
			s12.7-5.7,12.7-12.7V514c39-3.8,67.9-24.7,67.9-50.8C405.9,426.1,369.2,412.6,338,403.9z M312.5,396.6
			c-31.4-9.8-42.5-18.8-42.5-32.7c0-10.5,17.5-22.1,42.5-25.1V396.6z M338,488.4v-57.9c31.4,9.8,42.5,18.8,42.5,32.7
			C380.5,473.8,363,485.4,338,488.4z"/>
	</g>
</g>
</svg>
