<?xml version="1.0" encoding="utf-8"?>
<!-- Generator: Adobe Illustrator 27.7.0, SVG Export Plug-In . SVG Version: 6.00 Build 0)  -->
<svg version="1.1" id="Layer_1" xmlns="http://www.w3.org/2000/svg" xmlns:xlink="http://www.w3.org/1999/xlink" x="0px" y="0px"
	 viewBox="0 0 800 800" style="enable-background:new 0 0 800 800;" xml:space="preserve">
<style type="text/css">
	
		.st0{fill:none;stroke:#C98C64;stroke-width:32;stroke-linecap:round;stroke-linejoin:round;stroke-miterlimit:8;stroke-opacity:0.9;}
</style>
<path class="st0" d="M179.2,240c-61.8-57-31.1-150.5,41.4-157.7c33.5-3.3,77.6,25.9,99.4,25.9c69.1,0,136.4-53.6,201,0
	c37.4,31.1,18.4,90.9-7,105.9"/>
<path class="st0" d="M180,234c105.3-10.9,215.4-42.5,320-9.1"/>
<path class="st0" d="M186.1,278c-0.3,12.1-0.1,24.2,1.9,36"/>
<path class="st0" d="M194,310.3c97.3-44.5,216.4-42.3,314,1.7"/>
<path class="st0" d="M506,262c0.9,15.4,2,30.6,2,46"/>
<path class="st0" d="M187.6,372.4c-16.2,2-12.6,51,20.3,51C207.9,610,526,590,494.6,404.4c17.4,0,36.8-42.4,12.4-46.4"/>
<path class="st0" d="M320,412c0.9-6,1.5-12,2-18"/>
<path class="st0" d="M392,412c0-4.9,0-12,0-18"/>
<path class="st0" d="M372,490c-12.2,5.6-27,9.9-36,0.5"/>
<path class="st0" d="M76,720c18.2-85.2,82.6-145.4,174.3-145.4c1.5,0,58.7,56.5,110.5,52.6c45.8-3.4,71.4-37.8,109.2-52.6
	c56.3-22,144,103.4,144,142.3"/>
<path class="st0" d="M700,318c-22.8,49.9-126,227.2-115.2,294"/>
<path class="st0" d="M708,312c14.3,72.1,36,253.3-42,304"/>
<path class="st0" d="M656,608c-19.1-7.8-37.9-17.9-58-22"/>
<path class="st0" d="M590,616c-18.1,40.4-37.3,70.6,8,25.6"/>
<path class="st0" d="M622,640c-4.5,22.8-26.5,53.4-42,23.8"/>
<path class="st0" d="M422,673.7c-0.4,26.2-16,23-16-1.7"/>
<path class="st0" d="M292,702.9c-21.3,4.2-14.3-4.4-5.2-14.9"/>
</svg>
