<?xml version="1.0" encoding="utf-8"?>
<!-- Generator: Adobe Illustrator 27.7.0, SVG Export Plug-In . SVG Version: 6.00 Build 0)  -->
<svg version="1.1" id="Layer_1" xmlns="http://www.w3.org/2000/svg" xmlns:xlink="http://www.w3.org/1999/xlink" x="0px" y="0px"
	 viewBox="0 0 800 800" style="enable-background:new 0 0 800 800;" xml:space="preserve">
<style type="text/css">
	.st0{fill:#C98C64;}
</style>
<path class="st0" d="M748,400c0,15.7-13,28.5-29,28.5s-29-12.8-29-28.5c-0.2-157.4-129.9-285-290-285.1c-16,0-29-12.8-29-28.5
	s13-28.5,29-28.5C592.1,58,747.8,211.1,748,400z M516,428.5c16,0,29-12.8,29-28.5s-13-28.5-29-28.5h-66c-5.1-8.5-12.3-15.6-21-20.6
	v-93.4c0-15.7-13-28.5-29-28.5s-29,12.8-29,28.5v93.4c-27.7,15.7-37.2,50.4-21.3,77.6c15.9,27.2,51.3,36.6,79,20.9
	c8.8-5,16.2-12.2,21.3-20.9H516z M105,251.3c-16,0-29,12.8-29,28.5c0,15.7,13,28.5,29,28.5s29-12.8,29-28.5
	C134,264,121,251.3,105,251.3L105,251.3z M110,400c0-15.7-13-28.5-29-28.5S52,384.3,52,400s13,28.5,29,28.5S110,415.7,110,400z
	 M400,685.1c-16,0-29,12.8-29,28.5c0,15.7,13,28.5,29,28.5s29-12.8,29-28.5C429,697.9,416,685.1,400,685.1z M174.4,149.3
	c-16,0-29,12.8-29,28.5c0,15.7,13,28.5,29,28.5s29-12.8,29-28.5l0,0C203.4,162.1,190.4,149.3,174.4,149.3z M277.6,81.8
	c-16,0-29,12.8-29,28.5c0,15.7,13,28.5,29,28.5c16,0,29-12.8,29-28.5c0,0,0,0,0,0C306.6,94.6,293.6,81.8,277.6,81.8z M105,491.7
	c-16,0-29,12.8-29,28.5s13,28.5,29,28.5s29-12.8,29-28.5S121,491.7,105,491.7L105,491.7z M174.4,593.7c-16,0-29,12.8-29,28.5
	c0,15.7,13,28.5,29,28.5s29-12.8,29-28.5C203.4,606.5,190.4,593.7,174.4,593.7z M277.6,661.1c-16,0-29,12.8-29,28.5
	c0,15.7,13,28.5,29,28.5s29-12.8,29-28.5C306.6,673.9,293.6,661.1,277.6,661.1L277.6,661.1z M695,491.7c-16,0-29,12.8-29,28.5
	c0,15.7,13,28.5,29,28.5s29-12.8,29-28.5S711,491.7,695,491.7L695,491.7z M625.6,593.7c-16,0-29,12.8-29,28.5
	c0,15.7,13,28.5,29,28.5c16,0,29-12.8,29-28.5C654.6,606.5,641.6,593.7,625.6,593.7z M522.4,661.1c-16,0-29,12.8-29,28.5
	c0,15.7,13,28.5,29,28.5c16,0,29-12.8,29-28.5S538.4,661.1,522.4,661.1L522.4,661.1z"/>
</svg>
